{
  "accessors": [
    {
      "bufferView": 2,
      "componentType": 5126,
      "count": 40,
      "max": [
        1.0,
        1.0437803268432617,
        1.0
      ],
      "min": [
        -1.0,
        -1.10215425491333,
        -1.0
      ],
      "type": "VEC3"
    },
    {
      "bufferView": 2,
      "byteOffset": 480,
      "componentType": 5126,
      "count": 40,
      "max": [
        1.0,
        0.9990430474281311,
        1.0
      ],
      "min": [
        -1.0,
        -0.9948227405548096,
        -1.0
      ],
      "type": "VEC3"
    },
    {
      "bufferView": 1,
      "componentType": 5126,
      "count": 40,
      "max": [
        0.6526023745536804,
        0.6891961097717285
      ],
      "min": [
        0.31071168184280396,
        0.4281739592552185
      ],
      "type": "VEC2"
    },
    {
      "bufferView": 0,
      "componentType": 5125,
      "count": 60,
      "type": "SCALAR"
    },
    {
      "bufferView": 2,
      "byteOffset": 960,
      "componentType": 5126,
      "count": 80,
      "max": [
        1.1831557750701904,
        1.3459234237670898,
        1.3574604988098145
      ],
      "min": [
        -7.924528121948242,
        -1.2648617029190063,
        -1.0
      ],
      "type": "VEC3"
    },
    {
      "bufferView": 2,
      "byteOffset": 1920,
      "componentType": 5126,
      "count": 80,
      "max": [
        0.9792814254760742,
        0.9921888113021851,
        0.9689217805862427
      ],
      "min": [
        -0.9798764586448669,
        -0.9966602325439453,
        -1.0
      ],
      "type": "VEC3"
    },
    {
      "bufferView": 1,
      "byteOffset": 320,
      "componentType": 5126,
      "count": 80,
      "max": [
        0.5240568518638611,
        0.5276371240615845
      ],
      "min": [
        0.474372535943985,
        0.46781203150749207
      ],
      "type": "VEC2"
    },
    {
      "bufferView": 0,
      "byteOffset": 240,
      "componentType": 5125,
      "count": 120,
      "type": "SCALAR"
    },
    {
      "bufferView": 2,
      "byteOffset": 2880,
      "componentType": 5126,
      "count": 80,
      "max": [
        1.2516840696334839,
        0.8607779741287231,
        1.1802207231521606
      ],
      "min": [
        -11.383859634399414,
        -1.1805528402328491,
        -1.0
      ],
      "type": "VEC3"
    },
    {
      "bufferView": 2,
      "byteOffset": 3840,
      "componentType": 5126,
      "count": 80,
      "max": [
        0.967909038066864,
        0.97929447889328,
        0.9676262736320496
      ],
      "min": [
        -0.9679089784622192,
        -0.9871017336845398,
        -0.9993717670440674
      ],
      "type": "VEC3"
    },
    {
      "bufferView": 1,
      "byteOffset": 960,
      "componentType": 5126,
      "count": 80,
      "max": [
        0.547702968120575,
        0.595970094203949
      ],
      "min": [
        0.31071168184280396,
        0.4182673990726471
      ],
      "type": "VEC2"
    },
    {
      "bufferView": 0,
      "byteOffset": 720,
      "componentType": 5125,
      "count": 120,
      "type": "SCALAR"
    },
    {
      "bufferView": 2,
      "byteOffset": 4800,
      "componentType": 5126,
      "count": 48,
      "max": [
        1.0,
        1.0,
        1.0
      ],
      "min": [
        -5.784814357757568,
        -1.0,
        -1.0
      ],
      "type": "VEC3"
    },
    {
      "bufferView": 2,
      "byteOffset": 5376,
      "componentType": 5126,
      "count": 48,
      "max": [
        1.0,
        1.0,
        1.0
      ],
      "min": [
        -1.0,
        -1.0,
        -1.0
      ],
      "type": "VEC3"
    },
    {
      "bufferView": 1,
      "byteOffset": 1600,
      "componentType": 5126,
      "count": 48,
      "max": [
        0.6558833122253418,
        0.6638249158859253
      ],
      "min": [
        0.43619322776794434,
        0.3108038902282715
      ],
      "type": "VEC2"
    },
    {
      "bufferView": 0,
      "byteOffset": 1200,
      "componentType": 5125,
      "count": 72,
      "type": "SCALAR"
    },
    {
      "bufferView": 2,
      "byteOffset": 5952,
      "componentType": 5126,
      "count": 55,
      "max": [
        1.1155424118041992,
        1.0,
        1.2915961742401123
      ],
      "min": [
        -1.1155424118041992,
        -1.260353684425354,
        -1.0
      ],
      "type": "VEC3"
    },
    {
      "bufferView": 2,
      "byteOffset": 6612,
      "componentType": 5126,
      "count": 55,
      "max": [
        0.9906360507011414,
        1.0,
        0.9641016721725464
      ],
      "min": [
        -0.9906360507011414,
        -0.9885794520378113,
        -1.0
      ],
      "type": "VEC3"
    },
    {
      "bufferView": 1,
      "byteOffset": 1984,
      "componentType": 5126,
      "count": 55,
      "max": [
        0.682406485080719,
        0.6393163800239563
      ],
      "min": [
        0.4021187722682953,
        0.3108038902282715
      ],
      "type": "VEC2"
    },
    {
      "bufferView": 0,
      "byteOffset": 1488,
      "componentType": 5125,
      "count": 96,
      "type": "SCALAR"
    },
    {
      "bufferView": 2,
      "byteOffset": 7272,
      "componentType": 5126,
      "count": 80,
      "max": [
        1.6082298755645752,
        1.9212024211883545,
        2.421926975250244
      ],
      "min": [
        -10.049962997436523,
        -1.266474723815918,
        -1.0
      ],
      "type": "VEC3"
    },
    {
      "bufferView": 2,
      "byteOffset": 8232,
      "componentType": 5126,
      "count": 80,
      "max": [
        0.908700704574585,
        0.9770785570144653,
        1.0
      ],
      "min": [
        -0.9198780059814453,
        -0.9801539182662964,
        -1.0
      ],
      "type": "VEC3"
    },
    {
      "bufferView": 1,
      "byteOffset": 2424,
      "componentType": 5126,
      "count": 80,
      "max": [
        0.4307187795639038,
        0.518240213394165
      ],
      "min": [
        0.31071168184280396,
        0.3108038902282715
      ],
      "type": "VEC2"
    },
    {
      "bufferView": 0,
      "byteOffset": 1872,
      "componentType": 5125,
      "count": 120,
      "type": "SCALAR"
    },
    {
      "bufferView": 2,
      "byteOffset": 9192,
      "componentType": 5126,
      "count": 78,
      "max": [
        1.2673288583755493,
        1.311234951019287,
        4.130183219909668
      ],
      "min": [
        -14.398198127746582,
        -1.8414568901062012,
        -1.0
      ],
      "type": "VEC3"
    },
    {
      "bufferView": 2,
      "byteOffset": 10128,
      "componentType": 5126,
      "count": 78,
      "max": [
        0.9676218032836914,
        0.9904693961143494,
        0.9881078600883484
      ],
      "min": [
        -0.9728217720985413,
        -1.0,
        -1.0
      ],
      "type": "VEC3"
    },
    {
      "bufferView": 1,
      "byteOffset": 3064,
      "componentType": 5126,
      "count": 78,
      "max": [
        0.5469866394996643,
        0.6270537376403809
      ],
      "min": [
        0.3592778742313385,
        0.3108038902282715
      ],
      "type": "VEC2"
    },
    {
      "bufferView": 0,
      "byteOffset": 2352,
      "componentType": 5125,
      "count": 120,
      "type": "SCALAR"
    },
    {
      "bufferView": 2,
      "byteOffset": 11064,
      "componentType": 5126,
      "count": 48,
      "max": [
        1.0,
        1.0,
        6.038417816162109
      ],
      "min": [
        -20.395727157592773,
        -1.9388229846954346,
        -1.0
      ],
      "type": "VEC3"
    },
    {
      "bufferView": 2,
      "byteOffset": 11640,
      "componentType": 5126,
      "count": 48,
      "max": [
        1.0,
        1.0,
        1.0
      ],
      "min": [
        -1.0,
        -1.0,
        -1.0
      ],
      "type": "VEC3"
    },
    {
      "bufferView": 1,
      "byteOffset": 3688,
      "componentType": 5126,
      "count": 48,
      "max": [
        0.6639305353164673,
        0.6249600648880005
      ],
      "min": [
        0.31071168184280396,
        0.3108038902282715
      ],
      "type": "VEC2"
    },
    {
      "bufferView": 0,
      "byteOffset": 2832,
      "componentType": 5125,
      "count": 72,
      "type": "SCALAR"
    },
    {
      "bufferView": 2,
      "byteOffset": 12216,
      "componentType": 5126,
      "count": 48,
      "max": [
        1.0,
        1.2483428716659546,
        1.6011936664581299
      ],
      "min": [
        -42.43327713012695,
        -1.0,
        -0.953680157661438
      ],
      "type": "VEC3"
    },
    {
      "bufferView": 2,
      "byteOffset": 12792,
      "componentType": 5126,
      "count": 48,
      "max": [
        0.9859949350357056,
        0.9941549897193909,
        1.0
      ],
      "min": [
        -0.9987828135490417,
        -0.9782773852348328,
        -0.9997287392616272
      ],
      "type": "VEC3"
    },
    {
      "bufferView": 1,
      "byteOffset": 4072,
      "componentType": 5126,
      "count": 48,
      "max": [
        0.6566675901412964,
        0.6282488107681274
      ],
      "min": [
        0.3592778742313385,
        0.3108038902282715
      ],
      "type": "VEC2"
    },
    {
      "bufferView": 0,
      "byteOffset": 3120,
      "componentType": 5125,
      "count": 72,
      "type": "SCALAR"
    },
    {
      "bufferView": 2,
      "byteOffset": 13368,
      "componentType": 5126,
      "count": 48,
      "max": [
        1.0,
        1.3903008699417114,
        1.570275068283081
      ],
      "min": [
        -42.41122055053711,
        -1.0,
        -1.0087443590164185
      ],
      "type": "VEC3"
    },
    {
      "bufferView": 2,
      "byteOffset": 13944,
      "componentType": 5126,
      "count": 48,
      "max": [
        0.9869698882102966,
        0.9977313876152039,
        1.0
      ],
      "min": [
        -0.9986365437507629,
        -0.998919665813446,
        -0.9999654293060303
      ],
      "type": "VEC3"
    },
    {
      "bufferView": 1,
      "byteOffset": 4456,
      "componentType": 5126,
      "count": 48,
      "max": [
        0.6638666391372681,
        0.6638249158859253
      ],
      "min": [
        0.5207353234291077,
        0.3108038902282715
      ],
      "type": "VEC2"
    },
    {
      "bufferView": 0,
      "byteOffset": 3408,
      "componentType": 5125,
      "count": 72,
      "type": "SCALAR"
    },
    {
      "bufferView": 2,
      "byteOffset": 14520,
      "componentType": 5126,
      "count": 48,
      "max": [
        1.0,
        1.5418938398361206,
        1.5395588874816895
      ],
      "min": [
        -42.35310745239258,
        -1.2012548446655273,
        -1.0
      ],
      "type": "VEC3"
    },
    {
      "bufferView": 2,
      "byteOffset": 15096,
      "componentType": 5126,
      "count": 48,
      "max": [
        0.9869514107704163,
        0.9772934913635254,
        1.0
      ],
      "min": [
        -0.9981545209884644,
        -0.9949752688407898,
        -1.0
      ],
      "type": "VEC3"
    },
    {
      "bufferView": 1,
      "byteOffset": 4840,
      "componentType": 5126,
      "count": 48,
      "max": [
        0.5865679383277893,
        0.661543071269989
      ],
      "min": [
        0.31071168184280396,
        0.47223326563835144
      ],
      "type": "VEC2"
    },
    {
      "bufferView": 0,
      "byteOffset": 3696,
      "componentType": 5125,
      "count": 72,
      "type": "SCALAR"
    },
    {
      "bufferView": 2,
      "byteOffset": 15672,
      "componentType": 5126,
      "count": 48,
      "max": [
        1.0,
        1.0,
        1.0
      ],
      "min": [
        -36.981056213378906,
        -17.119142532348633,
        -2.5111777782440186
      ],
      "type": "VEC3"
    },
    {
      "bufferView": 2,
      "byteOffset": 16248,
      "componentType": 5126,
      "count": 48,
      "max": [
        0.9986644387245178,
        0.9982213973999023,
        1.0
      ],
      "min": [
        -0.9986644387245178,
        -0.9982212781906128,
        -1.0
      ],
      "type": "VEC3"
    },
    {
      "bufferView": 1,
      "byteOffset": 5224,
      "componentType": 5126,
      "count": 48,
      "max": [
        0.6250656247138977,
        0.6251078248023987
      ],
      "min": [
        0.3592778742313385,
        0.4281739592552185
      ],
      "type": "VEC2"
    },
    {
      "bufferView": 0,
      "byteOffset": 3984,
      "componentType": 5125,
      "count": 72,
      "type": "SCALAR"
    },
    {
      "bufferView": 2,
      "byteOffset": 16824,
      "componentType": 5126,
      "count": 83,
      "max": [
        1.0,
        1.0034254789352417,
        1.249390959739685
      ],
      "min": [
        -1.0,
        -1.070387840270996,
        -1.0
      ],
      "type": "VEC3"
    },
    {
      "bufferView": 2,
      "byteOffset": 17820,
      "componentType": 5126,
      "count": 83,
      "max": [
        0.9993554353713989,
        0.9999675750732422,
        0.9379492402076721
      ],
      "min": [
        -0.9993554353713989,
        -0.9864161610603333,
        -1.0
      ],
      "type": "VEC3"
    },
    {
      "bufferView": 1,
      "byteOffset": 5608,
      "componentType": 5126,
      "count": 83,
      "max": [
        0.6889890432357788,
        0.6223394870758057
      ],
      "min": [
        0.31071168184280396,
        0.4655361771583557
      ],
      "type": "VEC2"
    },
    {
      "bufferView": 0,
      "byteOffset": 4272,
      "componentType": 5125,
      "count": 144,
      "type": "SCALAR"
    },
    {
      "bufferView": 2,
      "byteOffset": 18816,
      "componentType": 5126,
      "count": 48,
      "max": [
        1.0,
        1.2797589302062988,
        1.7337095737457275
      ],
      "min": [
        -5.768347263336182,
        -1.0000004768371582,
        -1.0
      ],
      "type": "VEC3"
    },
    {
      "bufferView": 2,
      "byteOffset": 19392,
      "componentType": 5126,
      "count": 48,
      "max": [
        1.0,
        0.9916744828224182,
        0.9509406685829163
      ],
      "min": [
        -1.0,
        -0.9880838990211487,
        -0.8356097340583801
      ],
      "type": "VEC3"
    },
    {
      "bufferView": 1,
      "byteOffset": 6272,
      "componentType": 5126,
      "count": 48,
      "max": [
        0.6639305353164673,
        0.5468279123306274
      ],
      "min": [
        0.3592778742313385,
        0.3108038902282715
      ],
      "type": "VEC2"
    },
    {
      "bufferView": 0,
      "byteOffset": 4848,
      "componentType": 5125,
      "count": 72,
      "type": "SCALAR"
    },
    {
      "bufferView": 2,
      "byteOffset": 19968,
      "componentType": 5126,
      "count": 480,
      "max": [
        0.9510578513145447,
        1.0,
        1.0
      ],
      "min": [
        -4.2705206871032715,
        -1.0,
        -1.000000238418579
      ],
      "type": "VEC3"
    },
    {
      "bufferView": 2,
      "byteOffset": 25728,
      "componentType": 5126,
      "count": 480,
      "max": [
        0.9920774102210999,
        0.9435216784477234,
        0.9435240626335144
      ],
      "min": [
        -0.9920774102210999,
        -0.9435216784477234,
        -0.9435239434242249
      ],
      "type": "VEC3"
    },
    {
      "bufferView": 1,
      "byteOffset": 6656,
      "componentType": 5126,
      "count": 480,
      "max": [
        0.6843206286430359,
        0.6610954999923706
      ],
      "min": [
        0.3592778742313385,
        0.3108038902282715
      ],
      "type": "VEC2"
    },
    {
      "bufferView": 0,
      "byteOffset": 5136,
      "componentType": 5125,
      "count": 480,
      "type": "SCALAR"
    },
    {
      "bufferView": 2,
      "byteOffset": 31488,
      "componentType": 5126,
      "count": 480,
      "max": [
        0.9510578513145447,
        0.9999999403953552,
        1.0
      ],
      "min": [
        -3.8690147399902344,
        -0.9999999403953552,
        -1.0
      ],
      "type": "VEC3"
    },
    {
      "bufferView": 2,
      "byteOffset": 37248,
      "componentType": 5126,
      "count": 480,
      "max": [
        0.9920774102210999,
        0.9435215592384338,
        0.9435239434242249
      ],
      "min": [
        -0.9920774102210999,
        -0.9435215592384338,
        -0.9435238838195801
      ],
      "type": "VEC3"
    },
    {
      "bufferView": 1,
      "byteOffset": 10496,
      "componentType": 5126,
      "count": 480,
      "max": [
        0.6851049661636353,
        0.688178300857544
      ],
      "min": [
        0.40211883187294006,
        0.3395789861679077
      ],
      "type": "VEC2"
    },
    {
      "bufferView": 0,
      "byteOffset": 7056,
      "componentType": 5125,
      "count": 480,
      "type": "SCALAR"
    }
  ],
  "asset": {
    "extras": {
      "author": "M.Prabhakaran_GD (https://sketchfab.com/Prabhakaran_GD)",
      "license": "CC-BY-4.0 (http://creativecommons.org/licenses/by/4.0/)",
      "source": "https://sketchfab.com/3d-models/low-poly-monster-model-30c38cad62c5490e8909837ffd14fce7",
      "title": "Low Poly Monster Model"
    },
    "generator": "Sketchfab-12.68.0",
    "version": "2.0"
  },
  "bufferViews": [
    {
      "buffer": 0,
      "byteLength": 8976,
      "name": "floatBufferViews",
      "target": 34963
    },
    {
      "buffer": 0,
      "byteLength": 14336,
      "byteOffset": 8976,
      "byteStride": 8,
      "name": "floatBufferViews",
      "target": 34962
    },
    {
      "buffer": 0,
      "byteLength": 43008,
      "byteOffset": 23312,
      "byteStride": 12,
      "name": "floatBufferViews",
      "target": 34962
    }
  ],
  "buffers": [
    {
      "byteLength": 66320,
      "uri": "scene.bin"
    }
  ],
  "materials": [
    {
      "doubleSided": true,
      "name": "EYES",
      "pbrMetallicRoughness": {
        "baseColorFactor": [
          0.8,
          0.8,
          0.8,
          1.0
        ],
        "metallicFactor": 0.0,
        "roughnessFactor": 0.8211145618000169
      }
    },
    {
      "doubleSided": true,
      "name": "Material.004",
      "pbrMetallicRoughness": {
        "baseColorFactor": [
          0.8,
          0.0,
          0.00517526,
          1.0
        ],
        "metallicFactor": 0.0,
        "roughnessFactor": 0.9618854043152595
      }
    }
  ],
  "meshes": [
    {
      "name": "Cube.003_EYES_0",
      "primitives": [
        {
          "attributes": {
            "NORMAL": 1,
            "POSITION": 0,
            "TEXCOORD_0": 2
          },
          "indices": 3,
          "material": 0,
          "mode": 4
        }
      ]
    },
    {
      "name": "Cube.004_EYES_0",
      "primitives": [
        {
          "attributes": {
            "NORMAL": 5,
            "POSITION": 4,
            "TEXCOORD_0": 6
          },
          "indices": 7,
          "material": 0,
          "mode": 4
        }
      ]
    },
    {
      "name": "Cube.005_EYES_0",
      "primitives": [
        {
          "attributes": {
            "NORMAL": 9,
            "POSITION": 8,
            "TEXCOORD_0": 10
          },
          "indices": 11,
          "material": 0,
          "mode": 4
        }
      ]
    },
    {
      "name": "Cube.006_EYES_0",
      "primitives": [
        {
          "attributes": {
            "NORMAL": 13,
            "POSITION": 12,
            "TEXCOORD_0": 14
          },
          "indices": 15,
          "material": 0,
          "mode": 4
        }
      ]
    },
    {
      "name": "Cube.007_EYES_0",
      "primitives": [
        {
          "attributes": {
            "NORMAL": 17,
            "POSITION": 16,
            "TEXCOORD_0": 18
          },
          "indices": 19,
          "material": 0,
          "mode": 4
        }
      ]
    },
    {
      "name": "Cube.008_EYES_0",
      "primitives": [
        {
          "attributes": {
            "NORMAL": 21,
            "POSITION": 20,
            "TEXCOORD_0": 22
          },
          "indices": 23,
          "material": 0,
          "mode": 4
        }
      ]
    },
    {
      "name": "Cube.009_EYES_0",
      "primitives": [
        {
          "attributes": {
            "NORMAL": 25,
            "POSITION": 24,
            "TEXCOORD_0": 26
          },
          "indices": 27,
          "material": 0,
          "mode": 4
        }
      ]
    },
    {
      "name": "Cube.010_EYES_0",
      "primitives": [
        {
          "attributes": {
            "NORMAL": 29,
            "POSITION": 28,
            "TEXCOORD_0": 30
          },
          "indices": 31,
          "material": 0,
          "mode": 4
        }
      ]
    },
    {
      "name": "Cube.011_EYES_0",
      "primitives": [
        {
          "attributes": {
            "NORMAL": 33,
            "POSITION": 32,
            "TEXCOORD_0": 34
          },
          "indices": 35,
          "material": 0,
          "mode": 4
        }
      ]
    },
    {
      "name": "Cube.012_EYES_0",
      "primitives": [
        {
          "attributes": {
            "NORMAL": 37,
            "POSITION": 36,
            "TEXCOORD_0": 38
          },
          "indices": 39,
          "material": 0,
          "mode": 4
        }
      ]
    },
    {
      "name": "Cube.013_EYES_0",
      "primitives": [
        {
          "attributes": {
            "NORMAL": 41,
            "POSITION": 40,
            "TEXCOORD_0": 42
          },
          "indices": 43,
          "material": 0,
          "mode": 4
        }
      ]
    },
    {
      "name": "Cube.014_EYES_0",
      "primitives": [
        {
          "attributes": {
            "NORMAL": 45,
            "POSITION": 44,
            "TEXCOORD_0": 46
          },
          "indices": 47,
          "material": 0,
          "mode": 4
        }
      ]
    },
    {
      "name": "Cube.015_EYES_0",
      "primitives": [
        {
          "attributes": {
            "NORMAL": 49,
            "POSITION": 48,
            "TEXCOORD_0": 50
          },
          "indices": 51,
          "material": 0,
          "mode": 4
        }
      ]
    },
    {
      "name": "Cube.016_Material.004_0",
      "primitives": [
        {
          "attributes": {
            "NORMAL": 53,
            "POSITION": 52,
            "TEXCOORD_0": 54
          },
          "indices": 55,
          "material": 1,
          "mode": 4
        }
      ]
    },
    {
      "name": "Icosphere_EYES_0",
      "primitives": [
        {
          "attributes": {
            "NORMAL": 57,
            "POSITION": 56,
            "TEXCOORD_0": 58
          },
          "indices": 59,
          "material": 0,
          "mode": 4
        }
      ]
    },
    {
      "name": "Icosphere.001_EYES_0",
      "primitives": [
        {
          "attributes": {
            "NORMAL": 61,
            "POSITION": 60,
            "TEXCOORD_0": 62
          },
          "indices": 63,
          "material": 0,
          "mode": 4
        }
      ]
    }
  ],
  "nodes": [
    {
      "children": [
        1
      ],
      "matrix": [
        1.0,
        0.0,
        0.0,
        0.0,
        0.0,
        2.220446049250313e-16,
        -1.0,
        0.0,
        0.0,
        1.0,
        2.220446049250313e-16,
        0.0,
        0.0,
        0.0,
        0.0,
        1.0
      ],
      "name": "Sketchfab_model"
    },
    {
      "children": [
        2
      ],
      "matrix": [
        0.009999999776482582,
        0.0,
        0.0,
        0.0,
        0.0,
        0.0,
        0.009999999776482582,
        0.0,
        0.0,
        -0.009999999776482582,
        0.0,
        0.0,
        0.0,
        0.0,
        0.0,
        1.0
      ],
      "name": "51314b8680934515b4aa29bfbe980abd.fbx"
    },
    {
      "children": [
        3,
        5,
        7,
        9,
        11,
        13,
        15,
        17,
        19,
        21,
        23,
        25,
        27,
        29,
        31,
        33
      ],
      "name": "RootNode"
    },
    {
      "children": [
        4
      ],
      "matrix": [
        100.0,
        0.0,
        0.0,
        0.0,
        0.0,
        -1.629206793918314e-05,
        -99.99999999999868,
        0.0,
        0.0,
        99.99999999999868,
        -1.629206793918314e-05,
        0.0,
        0.0,
        402.8280334472656,
        0.0,
        1.0
      ],
      "name": "Cube.003"
    },
    {
      "mesh": 0,
      "name": "Cube.003_EYES_0"
    },
    {
      "children": [
        6
      ],
      "matrix": [
        33.906635059531816,
        4.778336202801103,
        -1.069514924324604e-07,
        0.0,
        1.2361973279671368,
        -8.77194368910279,
        -41.49191727459873,
        0.0,
        -13.306180700000143,
        94.41943632792037,
        -20.357966060277718,
        0.0,
        105.85619354248047,
        249.79942321777344,
        0.0,
        1.0
      ],
      "name": "Cube.004"
    },
    {
      "mesh": 1,
      "name": "Cube.004_EYES_0"
    },
    {
      "children": [
        8
      ],
      "matrix": [
        23.695655822753906,
        0.0,
        0.0,
        0.0,
        0.0,
        15.38614399504241,
        -27.339854137632226,
        0.0,
        0.0,
        63.265757344095256,
        35.60428843370429,
        0.0,
        120.04428100585938,
        109.45901489257813,
        -11.674769401550293,
        1.0
      ],
      "name": "Cube.005"
    },
    {
      "mesh": 2,
      "name": "Cube.005_EYES_0"
    },
    {
      "children": [
        10
      ],
      "matrix": [
        52.71881866455078,
        0.0,
        0.0,
        0.0,
        0.0,
        -1.0205920545317722e-05,
        -62.643493652342926,
        0.0,
        0.0,
        33.402206420898,
        -5.441910163278967e-06,
        0.0,
        126.12488555908203,
        54.003883361816406,
        -10.46908950805664,
        1.0
      ],
      "name": "Cube.006"
    },
    {
      "mesh": 3,
      "name": "Cube.006_EYES_0"
    },
    {
      "children": [
        12
      ],
      "matrix": [
        209.1165313720703,
        0.0,
        0.0,
        0.0,
        0.0,
        -2.7396304512042304e-05,
        -168.15731811523216,
        0.0,
        0.0,
        168.15731811523216,
        -2.7396304512042304e-05,
        0.0,
        0.0,
        655.294921875,
        0.0,
        1.0
      ],
      "name": "Cube.007"
    },
    {
      "mesh": 4,
      "name": "Cube.007_EYES_0"
    },
    {
      "children": [
        14
      ],
      "matrix": [
        70.13858153317953,
        25.091337712761423,
        -0.9715018036496086,
        0.0,
        -7.697484341442277,
        17.745111857176752,
        -97.41828411222106,
        0.0,
        -50.79161901023134,
        143.1443106511928,
        30.087570551490867,
        0.0,
        308.55413818359375,
        627.9117431640625,
        -26.607412338256836,
        1.0
      ],
      "name": "Cube.008"
    },
    {
      "mesh": 5,
      "name": "Cube.008_EYES_0"
    },
    {
      "children": [
        16
      ],
      "matrix": [
        54.1167177616716,
        19.359684949173822,
        -0.7495806917398756,
        0.0,
        4.512919362295196,
        -15.267176624346236,
        -68.49608943507751,
        0.0,
        -30.524854237407155,
        84.51977734360784,
        -20.849870210884617,
        0.0,
        380.897216796875,
        425.952392578125,
        -19.807861328125,
        1.0
      ],
      "name": "Cube.009"
    },
    {
      "mesh": 6,
      "name": "Cube.009_EYES_0"
    },
    {
      "children": [
        18
      ],
      "matrix": [
        40.92525961356642,
        14.64058131763567,
        -0.5668625553466221,
        0.0,
        4.258816340219655,
        -14.407540338377594,
        -64.6393048818328,
        0.0,
        -19.750276893105926,
        54.68621900049951,
        -13.490347858062309,
        0.0,
        428.9927062988281,
        292.7814636230469,
        13.043558120727539,
        1.0
      ],
      "name": "Cube.010"
    },
    {
      "mesh": 7,
      "name": "Cube.010_EYES_0"
    },
    {
      "children": [
        20
      ],
      "matrix": [
        20.865984438768155,
        0.5188550998479985,
        -0.30156704041407223,
        0.0,
        -0.017546860722261973,
        -10.007158788539897,
        -18.431715507008104,
        0.0,
        -1.2459174433584714,
        38.087034753428114,
        -20.677464475698574,
        0.0,
        433.876220703125,
        216.9563751220703,
        102.64956665039063,
        1.0
      ],
      "name": "Cube.011"
    },
    {
      "mesh": 8,
      "name": "Cube.011_EYES_0"
    },
    {
      "children": [
        22
      ],
      "matrix": [
        20.865984439891236,
        0.5188550998759249,
        -0.3015669626581949,
        0.0,
        -0.1895350655089599,
        -4.307330081754179,
        -20.525179061164188,
        0.0,
        -1.1840847236132865,
        42.44745374599308,
        -8.896914774490122,
        0.0,
        433.412109375,
        192.15989685058594,
        27.878061294555664,
        1.0
      ],
      "name": "Cube.012"
    },
    {
      "mesh": 9,
      "name": "Cube.012_EYES_0"
    },
    {
      "children": [
        24
      ],
      "matrix": [
        20.865984438206617,
        0.5188550998340351,
        -0.3015670792920109,
        0.0,
        -0.2635896284836355,
        -1.555036270635857,
        -20.913740320280365,
        0.0,
        -1.1218114357398137,
        43.253118832142455,
        -3.2019366080390967,
        0.0,
        432.66900634765625,
        187.97518920898438,
        -30.74272346496582,
        1.0
      ],
      "name": "Cube.013"
    },
    {
      "mesh": 10,
      "name": "Cube.013_EYES_0"
    },
    {
      "children": [
        26
      ],
      "matrix": [
        18.053017045727067,
        7.2825263317063005,
        5.585199223535041,
        0.0,
        10.135963924557098,
        -18.31786328646024,
        -8.877822580029232,
        0.0,
        3.7244922214352427,
        21.451557049810365,
        -40.009289138688544,
        0.0,
        399.526611328125,
        309.9165344238281,
        99.5339126586914,
        1.0
      ],
      "name": "Cube.014"
    },
    {
      "mesh": 11,
      "name": "Cube.014_EYES_0"
    },
    {
      "children": [
        28
      ],
      "matrix": [
        83.75816345214844,
        -4.734847831040642e-15,
        -6.128151646345903e-16,
        0.0,
        6.128147449516313e-16,
        21.32385803833574,
        -80.99829813820736,
        0.0,
        4.7348483238729516e-15,
        80.99829813820736,
        21.32385803833574,
        0.0,
        1.559631586074829,
        844.4086303710938,
        208.76461791992188,
        1.0
      ],
      "name": "Cube.015"
    },
    {
      "mesh": 12,
      "name": "Cube.015_EYES_0"
    },
    {
      "children": [
        30
      ],
      "matrix": [
        17.11981964111328,
        0.0,
        0.0,
        0.0,
        0.0,
        4.274769007414726,
        -16.237634574009306,
        0.0,
        0.0,
        14.402638728369528,
        3.791682426427649,
        0.0,
        42.37625503540039,
        855.8262939453125,
        294.5386047363281,
        1.0
      ],
      "name": "Cube.016"
    },
    {
      "mesh": 13,
      "name": "Cube.016_Material.004_0"
    },
    {
      "children": [
        32
      ],
      "matrix": [
        52.735328674316406,
        0.0,
        0.0,
        0.0,
        0.0,
        -1.020843634926585e-05,
        -62.65893554687417,
        0.0,
        0.0,
        52.73532867431571,
        -8.591675575571157e-06,
        0.0,
        87.52647399902344,
        323.319091796875,
        -17.87531280517578,
        1.0
      ],
      "name": "Icosphere"
    },
    {
      "mesh": 14,
      "name": "Icosphere_EYES_0"
    },
    {
      "children": [
        34
      ],
      "matrix": [
        167.8125457763672,
        0.0,
        0.0,
        0.0,
        0.0,
        -2.734013396835855e-05,
        -167.81254577636497,
        0.0,
        0.0,
        167.81254577636497,
        -2.734013396835855e-05,
        0.0,
        244.83489990234375,
        707.9898681640625,
        -15.287494659423828,
        1.0
      ],
      "name": "Icosphere.001"
    },
    {
      "mesh": 15,
      "name": "Icosphere.001_EYES_0"
    }
  ],
  "scene": 0,
  "scenes": [
    {
      "name": "Sketchfab_Scene",
      "nodes": [
        0
      ]
    }
  ]
}
